<svg width="16" height="13" fill="none" xmlns="http://www.w3.org/2000/svg"><path d="M2.448 0h-.002a.57.57 0 0 0-.57.573v8.585c0 .315.258.571.574.572 1.333.003 3.565.281 5.106 1.893V2.638a.549.549 0 0 0-.08-.29C6.214.312 3.784.003 2.449 0ZM14.124 9.158V.573a.57.57 0 0 0-.57-.573h-.001c-1.336.003-3.765.313-5.03 2.348a.549.549 0 0 0-.078.29v8.985c1.54-1.612 3.773-1.89 5.105-1.893a.574.574 0 0 0 .574-.572Z" fill="#92899C"/><path opacity=".4" d="M15.428 1.98h-.416v7.178c0 .804-.655 1.46-1.46 1.461-1.13.003-2.994.224-4.314 1.473 2.283-.559 4.69-.195 6.061.117a.571.571 0 0 0 .7-.558V2.552a.573.573 0 0 0-.572-.572ZM.988 9.158V1.98H.572A.573.573 0 0 0 0 2.552v9.1a.57.57 0 0 0 .7.557c1.372-.313 3.779-.676 6.062-.117-1.32-1.25-3.184-1.47-4.314-1.473a1.465 1.465 0 0 1-1.46-1.461Z" fill="#92899C"/></svg>