<svg width="16" height="16" fill="none" xmlns="http://www.w3.org/2000/svg"><path fill-rule="evenodd" clip-rule="evenodd" d="M7.642 1.458a.496.496 0 0 1 .716 0l5.511 5.737v7.184a.727.727 0 0 1-.727.727H2.858a.727.727 0 0 1-.727-.727V7.195l5.511-5.737ZM6.038 12.13v2.975h3.924v-2.975a1.962 1.962 0 1 0-3.924 0Z" fill="#D0C9D6"/><path d="M7.642 2.37 1.224 9.051a.33.33 0 0 1-.472.005l-.655-.655a.33.33 0 0 1-.005-.463L7.523.203c.26-.27.694-.27.954 0l7.43 7.735a.33.33 0 0 1-.004.463l-.655.655a.33.33 0 0 1-.472-.005L8.358 2.37a.496.496 0 0 0-.716 0Z" fill="#92899C"/></svg>