<svg width="22" height="20" fill="none" xmlns="http://www.w3.org/2000/svg"><path fill-rule="evenodd" clip-rule="evenodd" d="M3.257 5.515a2.257 2.257 0 1 0 0-4.515 2.257 2.257 0 0 0 0 4.515Zm0 6.554a2.257 2.257 0 1 0 0-4.515 2.257 2.257 0 0 0 0 4.515Zm2.258 4.297a2.257 2.257 0 1 1-4.515 0 2.257 2.257 0 0 1 4.515 0ZM7.719 2.579a.618.618 0 0 0-.02.153v1.05c0 .345.28.624.624.624h11.996a.623.623 0 0 0 .623-.623V2.732a.623.623 0 0 0-.623-.623H8.323a.62.62 0 0 0-.604.47Zm-.02 6.707c0-.344.28-.623.624-.623h11.996c.344 0 .623.28.623.623v1.051a.623.623 0 0 1-.623.623H8.323a.623.623 0 0 1-.623-.623v-1.05Zm.624 5.932a.623.623 0 0 0-.623.622v1.051c0 .344.279.623.623.623h11.996a.623.623 0 0 0 .623-.623v-1.05a.623.623 0 0 0-.623-.623H8.323Z" fill="#877D91"/><path fill-rule="evenodd" clip-rule="evenodd" d="M7.719 2.579a.618.618 0 0 0-.02.153v1.05c0 .345.28.623.623.623H20.32a.623.623 0 0 0 .623-.622V2.732a.623.623 0 0 0-.623-.623H8.323a.62.62 0 0 0-.604.47Zm-.02 6.707c0-.344.28-.623.623-.623H20.32c.344 0 .623.28.623.623v1.051a.623.623 0 0 1-.623.623H8.323a.623.623 0 0 1-.623-.623v-1.05Zm.623 5.932a.623.623 0 0 0-.622.622v1.051c0 .344.279.623.622.623H20.32a.623.623 0 0 0 .623-.623v-1.05a.623.623 0 0 0-.623-.623H8.323Z" fill="#C9C1D0"/></svg>