<svg width="21" height="20" fill="none" xmlns="http://www.w3.org/2000/svg"><path d="m5.902 2.416 4.124 2.416 4.124-2.416L10.026 0 5.902 2.416Z" fill="#D0C9D6"/><path d="M14.736 8.28V3.447l-4.124 2.415v4.835l4.124-2.417Z" fill="#B1A9B9"/><path d="m5.315 8.28 4.124 2.417V5.862L5.315 3.447V8.28Z" fill="#92899C"/><path d="m11.179 11.72 4.124 2.415 4.124-2.415-4.124-2.417-4.124 2.416Z" fill="#D0C9D6"/><path d="M20.013 17.583V12.75l-4.124 2.415V20l4.124-2.417Z" fill="#B1A9B9"/><path d="M10.592 17.583 14.717 20v-4.835l-4.125-2.415v4.833Z" fill="#92899C"/><path d="m.586 11.72 4.124 2.415 4.123-2.415L4.71 9.303.586 11.72Z" fill="#D0C9D6"/><path d="M9.42 17.583V12.75l-4.124 2.415V20l4.124-2.417Z" fill="#B1A9B9"/><path d="M0 17.583 4.122 20v-4.835L0 12.75v4.833Z" fill="#92899C"/></svg>